<?xml version="1.0" encoding="UTF-8" standalone="no"?>
<!DOCTYPE svg PUBLIC "-//W3C//DTD SVG 1.1//EN" "http://www.w3.org/Graphics/SVG/1.1/DTD/svg11.dtd">
<svg width="100%" height="100%" viewBox="0 0 1080 1000" version="1.1" xmlns="http://www.w3.org/2000/svg" xmlns:xlink="http://www.w3.org/1999/xlink" xml:space="preserve" xmlns:serif="http://www.serif.com/" style="fill-rule:evenodd;clip-rule:evenodd;stroke-linejoin:round;stroke-miterlimit:2;">
    <g transform="matrix(1,0,0,1,-9231.66,0)">
        <g id="Sketch" transform="matrix(1.08108,0,0,1,7808.96,0)">
            <rect x="1316" y="0" width="999" height="1000" style="fill:none;"/>
            <g transform="matrix(0.925,0,0,1,-3485.69,2.27374e-13)">
                <g id="grouped">
                    <path d="M5830.37,884.483C5798.55,892.276 5765.28,896.412 5731.01,896.412C5696.15,896.412 5662.3,892.128 5630.03,884.078L5630.03,640.166L5830.37,640.166L5830.37,884.483ZM5570.04,864.114C5425.5,803.297 5324.23,663.083 5324.23,500C5324.23,281.214 5506.5,103.588 5731.01,103.588C5955.53,103.588 6137.8,281.214 6137.8,500C6137.8,663.674 6035.79,804.312 5890.4,864.782L5876.94,640.166L5976.78,640.166L5976.78,594.396L5897.03,594.396L5897.03,573.852L5870.6,573.852L5870.6,556.235L5881.94,556.235L5881.94,542.176C5910.88,537.675 5939.78,531.85 5968.61,524.7L6011.87,472.973L6003.49,460C5821.68,513.991 5639.88,513.115 5458.07,460L5449.16,472.973L5494.48,524.7C5522.33,531.421 5550.13,536.976 5577.87,541.361L5577.87,556.235L5589.21,556.235L5589.21,573.852L5562.78,573.852L5562.78,594.396L5484.68,594.396L5484.68,640.166L5583.45,640.166L5570.04,864.114ZM5635.65,548.814L5635.65,556.235L5629.42,556.235L5629.42,573.852L5657.61,573.852L5657.61,594.396L5705.53,594.396L5705.53,553.299C5682.28,552.637 5658.99,551.142 5635.65,548.814ZM5824.15,549.4L5824.15,556.235L5830.39,556.235L5830.39,573.852L5802.19,573.852L5802.19,594.396L5753.22,594.396L5753.22,553.485C5776.91,552.994 5800.56,551.632 5824.15,549.4Z" style="fill:rgb(225,107,140);"/>
                </g>
            </g>
        </g>
    </g>
</svg>
